<?xml version="1.0" encoding="UTF-8"?>
<svg version="1.1" viewBox="0 0 860 960" width="215" height="240" xmlns="http://www.w3.org/2000/svg">
<path transform="translate(0)" d="m0 0h860v960h-860z" fill="#FCFCFC"/>
<path transform="translate(396,371)" d="m0 0h28l23 2 36 8 18 6 26 11 19 11 17 12 14 11 13 12 12 12 9 11 11 14 8 12 8 13 9 16 9 20 2 7h-115l-5-5-9-11-5-6-8-7-9-8-15-10-23-12-24-8-14-3-9-1h-28l-24 5-18 6-21 10-17 12-10 9-11 11-10 13-9 14-8 16-6 16-5 19-2 16v16l2 20 6 25 8 20 9 16 10 14 11 12 8 8 17 13 17 10 15 6 20 5 13 2 12 1h15l18-2 18-4 19-7 16-8 11-7 13-10 12-11 9-10 10-15 3-5h40l60 1 14 1-8 21-9 20-11 20-14 20-7 9-9 11-12 13-12 11-11 9-12 9-25 15-16 8-18 7-32 9-17 3-24 2h-22l-25-3-26-5-20-6-21-8-16-7-24-14-15-10-15-12-3-3v-402l16-12 27-16 21-10 29-11 20-6 18-4 15-2z" fill="#010102"/>
<path transform="translate(195,65)" d="m0 0h13l16 3 1 11h3l1-3 7 1 10 4 6 7v16l15 2 14 3 3 7 1 4 8-1 6-3h11l10-5 5-4 10-3 8-2 6 1 1 3 4 2 6 8v6l-3 3 1 3 5 2 1 5-7 4-14 7-6 7-2 6-1 8-2 2-9 1-2 1 1 4 6 5 1 4-4 5 2 4 9 5 3 3-2 5-1 5 3 8-9 10-5-1-13-7h-3v2l5 4 1 6v2l3 2v2l4 2 6 6 9 2 3 6v2l9 3 21 9 2 4-3 9-7 8-6 5-1 5 5 10 7 9 26 13 10 6 39 6h5l1-3 6 1 3 6 18 4 13 6 26 4h28l12-4 5-1 11 7 8 7-1 9-4 10v4l23 2 2 7v13l-1 3-5-2-16-12-12-8-13-8-24-12-23-9-24-7-26-5-29-3h-34l-26 3-23 4-24 7-25 10-16 8-16 9-30 19h-2l-5-15-6-11-9-10-13-8-12-4-7-1h-13l-14 4-12 7-9 9-6 10-4 10-1 6v16l3 12 6 12 9 10 8 6 10 4 11 3-2 4-20 20-9 11-9 12-10 15-3 3-3-2h-5l-8 15-5 6-7 4-4 1h-7l-15-5-11-6-8-8-8-14-6-4-4-8v-4l8-1h14l13-2 6-4 1-2v-6l-9-4h-22l-4-2-6-9-9-6-4-4-1-5v-12l3-6 3-1 6 4 3 3 5-1 10-6 8-1 36 5h6l7-3-1-4-8-4-5-6-2-5v-15l-7-16-6-8-1-12-2-2-5 1-5 2h-3l-1-2v-9l3-8 8-11 5-7 9-6 5 1 8 11 5 5 3 2h8l15-5 8-6 10-9 17-13 8-8 6-12 6-19 8-3 5-1 1-10 5-16 6-12 8-10 6-5 4 1 10 24 3 2 10 1 3 2v2l5 1 3-4v-7l-2-3 1-9-1-1-15-1-14-22-4-5v-2l-5 1-9 4-7-1-6-7-5-10-3-13v-15l7-23v-11l-10-5-3-7-5-2-13-1-5-5-3-4v-6l7-11 5-5 14-8 16-11z" fill="#153370"/>
<path transform="translate(213,460)" d="m0 0h2v442h-104l-1-1v-267l1-22 4-24 6-20 9-21 9-17 9-13 9-12 21-21 20-15 14-8z" fill="#010102"/>
<path transform="translate(775,251)" d="m0 0 7 4 3 6 1 8 1 1 7-1 5-3 6 1 6 4-4 6-11 7-3 3 1 5 4 3 7-1 3-1h7l4 5v7l-5 8h-10l-6 9-2 1-10 1-5 5-4 12-3 3-8 3-1 1v19l-2 8 5 7-2 8-4 11-4 1-2-1h-6l-5 3h-2l-1 8 1 6v11l-9 17-9 7v9l4 26-5 1-5-2-6-9-5-6-7-6-5-11-2-15v-3l-5 2-8 9-4 10-1 5-4-1-5-4-1-2-2-30 6-9 7-8 10-4 6-9 1-2-29-3h-16l-9 1-9-3-7-4v-2h-2l-2-17-27-4-12-3-10-9-7-8-4-8-3-13-1-7 2-7 4-4 9 1 8 4 5 4-1 4-6 5-4 5v7l9 3 2 5 12 1 31 1 16 1 18-4 10 1 8 4 3-9 3-7v-7l-7-8 3-6 4-1 10 2 12-18 12-13 7-6 19-9 25-11z" fill="#153370"/>
<path transform="translate(169,383)" d="m0 0 13 1 10 4 9 7 7 11 3 12-2 14-5 10-8 8-10 6-10 2-13-1-8-3-9-7-7-9-3-9-1-6v-8l2-9 8-11 7-6 8-4z" fill="#EE5341"/>
</svg>
