<?xml version="1.0" encoding="UTF-8"?>
<svg id="Layer_1" data-name="Layer 1" xmlns="http://www.w3.org/2000/svg" viewBox="0 0 2245 285.34">
  <defs>
    <style>
      .cls-1 {
        fill: #231f20;
      }
    </style>
  </defs>
  <path class="cls-1" d="M150.43,185.48c42.4-12.64,66.85-44.02,66.85-89.3C217.28,35.89,174.05,0,102.32,0H0v18.78h102.32c61.17,0,93.76,28.13,93.76,77.41s-32.59,77.45-93.76,77.45H0v111.71h20.82v-93.35h81.5c9.8,0,18.78-.8,27.71-2.04l68.1,95.39h23.62l-71.32-99.86Z"/>
  <path class="cls-1" d="M296.75,0v285.34h20.78V0h-20.78Z"/>
  <path class="cls-1" d="M422.18,74.34c0-30.94,24.52-56.24,79.15-56.24,25.3,0,53.85,7.65,77.18,23.7l7.61-16.46c-21.68-15.67-53.85-25.34-84.79-25.34-69.12,0-99.64,34.97-99.64,74.75,0,103.67,175.59,53.07,175.59,137.45,0,30.53-24.89,55.05-81.17,55.05-37.77,0-73.52-15.26-92.81-35.34l-9.26,15.26c20.49,22.5,60.68,38.18,102.48,38.18,69.53,0,101.25-34.56,101.25-74.34,0-102.07-175.59-52.25-175.59-136.66Z"/>
  <path class="cls-1" d="M674.28,0v285.34h20.78V0h-20.78Z"/>
  <path class="cls-1" d="M981.55,0v247.83L787.54,0h-17.53v285.34h20.78V37.51l194.42,247.83h17.11V0h-20.78Z"/>
  <path class="cls-1" d="M1306.08,240.71c-22.88,18.51-50.23,25.75-79.94,25.75-73.15,0-127.41-53.44-127.41-123.79s54.26-123.79,127.41-123.79c34.15,0,63.48,9.26,88,33.36l12.84-13.66c-24.89-25.71-60.68-38.59-101.25-38.59-85.2,0-147.49,60.68-147.49,142.67s62.29,142.67,147.08,142.67c38.59,0,75.16-12.05,100.46-36.16v-105.32h-19.7v96.84Z"/>
  <path class="cls-1" d="M1432.59,74.34c0-30.94,24.52-56.24,79.15-56.24,25.34,0,53.85,7.65,77.18,23.7l7.61-16.46c-21.68-15.67-53.85-25.34-84.79-25.34-69.12,0-99.64,34.97-99.64,74.75,0,103.67,175.59,53.07,175.59,137.45,0,30.53-24.89,55.05-81.17,55.05-37.77,0-73.52-15.26-92.81-35.34l-9.26,15.26c20.49,22.5,60.68,38.18,102.48,38.18,69.53,0,101.28-34.56,101.28-74.34,0-102.07-175.62-52.25-175.62-136.66Z"/>
  <path class="cls-1" d="M1973.58,0h-17.11l-127.57,220.54L1701.29,0h-17.53v285.34h20.4V41.98l119.43,205.47h10.18l119.43-206.27.42,244.16h20.37l-.42-285.34Z"/>
  <path class="cls-1" d="M2048.12,0v18.78h196.88V0h-196.88ZM2048.12,266.61v18.74h196.88v-18.74h-196.88ZM2245,149.6v-18.32h-196.88v18.32h196.88Z"/>
</svg>